<?xml version="1.0" encoding="UTF-8" standalone="no"?>
<svg
  width="24"
  height="24"
  fill-rule="evenodd"
  clip-rule="evenodd"
  viewBox="0 0 24 24"
  version="1.1"
  id="svg1"
  sodipodi:docname="CmdPathGen.svg"
  inkscape:version="1.4.2 (f4327f4, 2025-05-13)"
  xmlns:inkscape="http://www.inkscape.org/namespaces/inkscape"
  xmlns:sodipodi="http://sodipodi.sourceforge.net/DTD/sodipodi-0.dtd"
  xmlns="http://www.w3.org/2000/svg"
  xmlns:svg="http://www.w3.org/2000/svg">
  <defs
    id="defs1" />
  <sodipodi:namedview
    id="namedview1"
    pagecolor="#ffffff"
    bordercolor="#000000"
    borderopacity="0.25"
    inkscape:showpageshadow="2"
    inkscape:pageopacity="0.0"
    inkscape:pagecheckerboard="0"
    inkscape:deskcolor="#d1d1d1"
    inkscape:zoom="47.375"
    inkscape:cx="11.989446"
    inkscape:cy="12"
    inkscape:window-width="2560"
    inkscape:window-height="1351"
    inkscape:window-x="2551"
    inkscape:window-y="-9"
    inkscape:window-maximized="1"
    inkscape:current-layer="svg1" />
  <path
    d="M 6.5083325,6.8074829 C 6.1438012,7.8818313 5.159921,8.6518577 4.005277,8.6518577 c -1.4652031,0 -2.6543535,-1.2394198 -2.6543535,-2.7665621 0,-1.5271422 1.1891504,-2.766562 2.6543535,-2.766562 1.154644,0 2.1385242,0.7700264 2.5030555,1.8443746 H 18.604221 c 2.197805,0 3.981531,1.8591298 3.981531,4.1498432 0,2.2907136 -1.783726,4.1498426 -3.981531,4.1498426 h -4.132828 c -0.364532,1.074348 -1.348412,1.844375 -2.503055,1.844375 -1.154644,0 -2.1385245,-0.770027 -2.5030556,-1.844375 H 5.3324539 c -1.2210026,0 -2.2119614,1.03285 -2.2119614,2.305469 0,1.272618 0.9909588,2.305468 2.2119614,2.305468 H 17.428343 c 0.364531,-1.074349 1.348412,-1.844375 2.503055,-1.844375 1.465203,0 2.654354,1.23942 2.654354,2.766562 0,1.527142 -1.189151,2.766562 -2.654354,2.766562 -1.154643,0 -2.138524,-0.770026 -2.503055,-1.844374 H 5.3324539 c -2.1978047,0 -3.9815304,-1.85913 -3.9815304,-4.149843 0,-2.290714 1.7837257,-4.149844 3.9815304,-4.149844 h 4.1328285 c 0.3645311,-1.074347 1.3484116,-1.8443739 2.5030556,-1.8443739 1.154643,0 2.138523,0.7700269 2.503055,1.8443739 h 4.132828 c 1.221003,0 2.211962,-1.03285 2.211962,-2.3054676 0,-1.2726185 -0.990959,-2.3054685 -2.211962,-2.3054685 z m 5.4600055,4.6109361 c 0.4884,0 0.884784,0.41314 0.884784,0.922188 0,0.509047 -0.396384,0.922187 -0.884784,0.922187 -0.488401,0 -0.884785,-0.41314 -0.884785,-0.922187 0,-0.509048 0.396384,-0.922188 0.884785,-0.922188 z"
    id="path1"
    style="stroke-width:0.903292" />
</svg>
