<svg clip-rule="evenodd" fill-rule="evenodd" stroke-linejoin="round" stroke-miterlimit="2" viewBox="0 0 24 24" xmlns="http://www.w3.org/2000/svg">
  <path d="m22 15.728c0 .266-.105.52-.293.707-1 1-4.272 4.272-5.272 5.272-.187.188-.441.293-.707.293-1.414 0-6.042 0-7.456 0-.266 0-.52-.105-.707-.293-1-1-4.272-4.272-5.272-5.272-.188-.187-.293-.441-.293-.707 0-1.414 0-6.042 0-7.456 0-.266.105-.52.293-.707l5.272-5.272c.187-.188.441-.293.707-.293h7.456c.266 0 .52.105.707.293 1 1 4.272 4.272 5.272 5.272.188.187.293.441.293.707zm-18.5-7.249v7.042l4.979 4.979h7.042l4.979-4.979v-7.042l-4.979-4.979h-7.042z" fill-rule="nonzero" />
</svg>
