<?xml version="1.0" encoding="UTF-8" standalone="no"?>
<svg
   viewBox="0 0 24 24"
   version="1.1"
   id="svg8"
   sodipodi:docname="SettingNetwork.svg"
   inkscape:version="1.4.2 (f4327f4, 2025-05-13)"
   xml:space="preserve"
   xmlns:inkscape="http://www.inkscape.org/namespaces/inkscape"
   xmlns:sodipodi="http://sodipodi.sourceforge.net/DTD/sodipodi-0.dtd"
   xmlns="http://www.w3.org/2000/svg"
   xmlns:svg="http://www.w3.org/2000/svg"><defs
     id="defs8" /><sodipodi:namedview
     id="namedview8"
     pagecolor="#ffffff"
     bordercolor="#000000"
     borderopacity="0.25"
     inkscape:showpageshadow="2"
     inkscape:pageopacity="0.0"
     inkscape:pagecheckerboard="0"
     inkscape:deskcolor="#d1d1d1"
     inkscape:zoom="47.208333"
     inkscape:cx="12.010591"
     inkscape:cy="11.978817"
     inkscape:window-width="2560"
     inkscape:window-height="1351"
     inkscape:window-x="2551"
     inkscape:window-y="-9"
     inkscape:window-maximized="1"
     inkscape:current-layer="g8" /><!-- unified outline style --><g
     fill="none"
     stroke="currentColor"
     stroke-width="2"
     stroke-linecap="round"
     stroke-linejoin="round"
     id="g8"><!-- network nodes and connections --><!-- settings gear (emphasized), anchored at network corner --><!-- gear teeth --><g
       id="g10"
       transform="matrix(0.9027981,0,0,0.9027981,0.82178962,0.20384651)"><g
         id="g9"
         transform="matrix(1.1718597,0,0,1.1718597,-4.0902597,-3.9184001)"><circle
           cx="18.5"
           cy="17.5"
           r="2.2"
           id="circle1" /><line
           x1="18.5"
           y1="14.5"
           x2="18.5"
           y2="13.2"
           id="line1" /><line
           x1="18.5"
           y1="21.799999"
           x2="18.5"
           y2="20.5"
           id="line2" /><line
           x1="21.5"
           y1="17.5"
           x2="22.799999"
           y2="17.5"
           id="line3" /><line
           x1="14.2"
           y1="17.5"
           x2="15.5"
           y2="17.5"
           id="line4" /><line
           x1="20.6"
           y1="15.4"
           x2="21.5"
           y2="14.5"
           id="line5" /><line
           x1="16.4"
           y1="19.6"
           x2="15.5"
           y2="20.5"
           id="line6" /><line
           x1="20.6"
           y1="19.6"
           x2="21.5"
           y2="20.5"
           id="line7" /><line
           x1="16.4"
           y1="15.4"
           x2="15.5"
           y2="14.5"
           id="line8" /></g></g><g
       style="clip-rule:evenodd;fill-rule:evenodd"
       id="g1"
       transform="matrix(0.63777581,0,0,0.63777581,1.9929392,1.3387467)"><path
         d="M 18.5,20 H 5.5 C 3.019,20 1,17.981 1,15.5 1,13.322 2.555,11.462 4.698,11.076 l 0.779,-0.14 0.043,-0.79 C 5.705,6.699 8.551,4 12,4 c 3.449,0 6.295,2.699 6.479,6.146 l 0.043,0.79 0.78,0.14 C 21.444,11.462 23,13.322 23,15.5 23,17.981 20.981,20 18.5,20 m 0.979,-9.908 C 19.267,6.141 16.006,3 12,3 7.994,3 4.733,6.141 4.521,10.092 1.951,10.555 0,12.798 0,15.5 0,18.537 2.463,21 5.5,21 h 13 c 3.037,0 5.5,-2.463 5.5,-5.5 0,-2.702 -1.951,-4.945 -4.521,-5.408"
         id="path1" /></g></g></svg>
